# xmcd
# 
# Track frame offsets:
#     150
#     5000
#     17310
#     34787
#     61955
#     80718
#     98805
#     126640
#     140854
#     161609
#     169837
#     183794
#     213969
# 
# Disc length: 3104
# 
# Revision: 2
# Processed by: cddbd v1.5.2PL0 Copyright (c) Steve Scherf et al.
# Submitted via: fre:ac v1.0.31
# 
DISCID=af0c1e0d
DTITLE=Eric Johnson - Up Close - Another Look
DYEAR=2013
DGENRE=Blues
TTITLE0=Awaken
TTITLE1=Fatdaddy
TTITLE2=Brilliant Room
TTITLE3=Texas
TTITLE4=Gem
TTITLE5=Austin
TTITLE6=Soul Surprise
TTITLE7=On the Way
TTITLE8=Arithmetic
TTITLE9=The Sea and the Mountain
TTITLE10=Vortexan
TTITLE11=A Change Has Come to Me
TTITLE12=Your Book
EXTD=
EXTT0=
EXTT1=
EXTT2=
EXTT3=
EXTT4=
EXTT5=
EXTT6=
EXTT7=
EXTT8=
EXTT9=
EXTT10=
EXTT11=
EXTT12=
PLAYORDER=
